<mxfile host="65bd71144e" pages="1">
    <diagram id="2ya5GuV1ifHx47wBAU_z" name="Page-1">
        <mxGraphModel dx="1092" dy="878" grid="1" gridSize="10" guides="1" tooltips="1" connect="1" arrows="1" fold="1" page="1" pageScale="1" pageWidth="450" pageHeight="660" background="#ffffff" math="0" shadow="0">
            <root>
                <mxCell id="0"/>
                <mxCell id="1" parent="0"/>
                <mxCell id="2" value="Magento Backend" style="html=1;overflow=block;blockSpacing=1;whiteSpace=wrap;fontSize=16.7;fontColor=#333333;fontStyle=1;align=left;spacing=3.8;verticalAlign=top;strokeColor=#5e5e5e;strokeOpacity=100;absoluteArcSize=1;arcSize=9;strokeWidth=2.3;container=1;collapsible=0;fillColor=#FFFFFF;" parent="1" vertex="1">
                    <mxGeometry x="695" y="786" width="330" height="420" as="geometry"/>
                </mxCell>
                <UserObject label="PWA Studio" lucidchartObjectId="smCJzhlw7XsL" id="3">
                    <mxCell style="html=1;overflow=block;blockSpacing=1;whiteSpace=wrap;fontSize=16.7;fontColor=#834187;fontStyle=1;align=left;spacing=3.8;verticalAlign=top;strokeColor=#834187;strokeOpacity=100;absoluteArcSize=1;arcSize=9;strokeWidth=2.3;fillColor=#FFFFFF;" parent="1" vertex="1">
                        <mxGeometry x="80" y="141" width="330" height="555" as="geometry"/>
                    </mxCell>
                </UserObject>
                <mxCell id="4" value="Buildpack" style="html=1;overflow=block;blockSpacing=1;whiteSpace=wrap;fontSize=13;fontColor=#c92d39;fontStyle=1;align=left;spacing=9;verticalAlign=top;strokeColor=#c92d39;strokeOpacity=100;absoluteArcSize=1;arcSize=9;strokeWidth=2.3;container=1;collapsible=0;fillColor=#FFFFFF;" parent="1" vertex="1">
                    <mxGeometry x="107" y="279" width="270" height="390" as="geometry"/>
                </mxCell>
                <mxCell id="5" value="Venia" style="html=1;overflow=block;blockSpacing=1;whiteSpace=wrap;fontSize=16.7;fontColor=#0c7cba;fontStyle=1;align=left;spacing=3.8;verticalAlign=top;strokeColor=#0c7cba;strokeOpacity=100;absoluteArcSize=1;arcSize=9;strokeWidth=2.3;container=1;collapsible=0;fillColor=#FFFFFF;" parent="1" vertex="1">
                    <mxGeometry x="695" y="140" width="330" height="525" as="geometry"/>
                </mxCell>
                <UserObject label="Project Scaffolding Tool" lucidchartObjectId="VpCJU0ryBftV" id="6">
                    <mxCell style="html=1;overflow=block;blockSpacing=1;whiteSpace=wrap;shape=process;fontSize=16.7;fontColor=#333333;spacing=3.8;strokeColor=#5e5e5e;strokeOpacity=100;absoluteArcSize=1;arcSize=9;strokeWidth=2.3;fillColor=#FFFFFF;" parent="1" vertex="1">
                        <mxGeometry x="110" y="186" width="270" height="75" as="geometry"/>
                    </mxCell>
                </UserObject>
                <UserObject label="" lucidchartObjectId="kqCJN82U5BEQ" id="7">
                    <mxCell style="html=1;jettySize=18;whiteSpace=wrap;fontSize=13;strokeColor=#5E5E5E;strokeWidth=1.5;arcSize=12;edgeStyle=orthogonalEdgeStyle;startArrow=none;endArrow=block;endFill=1;exitX=1.004;exitY=0.5;exitPerimeter=0;entryX=-0.003;entryY=0.158;entryPerimeter=0;" parent="1" source="6" target="5" edge="1">
                        <mxGeometry width="100" height="100" relative="1" as="geometry">
                            <Array as="points"/>
                        </mxGeometry>
                    </mxCell>
                </UserObject>
                <mxCell id="8" value="&#10;Creates a storefront project.&#10;&#10;Team maintains a demo&#10;store named Venia " style="text;html=1;resizable=0;labelBackgroundColor=none;align=center;verticalAlign=middle;fontStyle=0;fontColor=#333333;fontSize=13.3;" parent="7" vertex="1">
                    <mxGeometry x="0.08316566063044917" relative="1" as="geometry"/>
                </mxCell>
                <UserObject label="" lucidchartObjectId="SsCJFrIRFOSo" id="9">
                    <mxCell style="html=1;jettySize=18;whiteSpace=wrap;fontSize=13;strokeColor=#5E5E5E;strokeWidth=1.5;arcSize=12;edgeStyle=orthogonalEdgeStyle;startArrow=block;startFill=1;endArrow=block;endFill=1;exitX=0.5;exitY=1.002;exitPerimeter=0;entryX=0.5;entryY=-0.003;entryPerimeter=0;" parent="1" source="5" target="2" edge="1">
                        <mxGeometry width="100" height="100" relative="1" as="geometry">
                            <Array as="points"/>
                        </mxGeometry>
                    </mxCell>
                </UserObject>
                <mxCell id="10" value="Communicate via GraphQL" style="text;html=1;resizable=0;labelBackgroundColor=#FFFFFF;align=center;verticalAlign=middle;fontStyle=1;fontColor=#333333;fontSize=13.3;" parent="9" vertex="1">
                    <mxGeometry relative="1" as="geometry"/>
                </mxCell>
                <UserObject label="" lucidchartObjectId="IvCJG7UbG~~K" id="11">
                    <mxCell style="html=1;jettySize=18;whiteSpace=wrap;fontSize=13;strokeColor=#5E5E5E;strokeWidth=1.5;arcSize=12;edgeStyle=orthogonalEdgeStyle;startArrow=none;endArrow=block;endFill=1;exitX=1.005;exitY=0.5;exitPerimeter=0;entryX=-0.003;entryY=0.654;entryPerimeter=0;" parent="1" source="27" target="5" edge="1">
                        <mxGeometry width="100" height="100" relative="1" as="geometry">
                            <Array as="points"/>
                        </mxGeometry>
                    </mxCell>
                </UserObject>
                <mxCell id="12" value="Rebuilds" style="text;html=1;resizable=0;labelBackgroundColor=none;align=center;verticalAlign=middle;fontStyle=0;fontColor=#333333;fontSize=13.3;" parent="11" vertex="1">
                    <mxGeometry x="0.08944869161081748" relative="1" as="geometry">
                        <mxPoint x="-13" y="-15" as="offset"/>
                    </mxGeometry>
                </mxCell>
                <mxCell id="13" value="Peregrine" style="html=1;overflow=block;blockSpacing=1;whiteSpace=wrap;fontSize=15;fontColor=#19967d;fontStyle=1;align=left;spacing=9;verticalAlign=top;strokeColor=#19967d;strokeOpacity=100;absoluteArcSize=1;arcSize=9;strokeWidth=2.3;container=1;collapsible=0;fillColor=#FFFFFF;" parent="1" vertex="1">
                    <mxGeometry x="725" y="174" width="270" height="202" as="geometry"/>
                </mxCell>
                <UserObject label="UI Components" lucidchartObjectId="DyCJLm_Sw34x" id="14">
                    <mxCell style="html=1;overflow=block;blockSpacing=1;whiteSpace=wrap;fontSize=15;fontColor=#333333;spacing=3.8;strokeOpacity=0;fillOpacity=0;absoluteArcSize=1;arcSize=9;fillColor=#ffffff;strokeWidth=2.3;" parent="13" vertex="1">
                        <mxGeometry y="36" width="270" height="27" as="geometry"/>
                    </mxCell>
                </UserObject>
                <UserObject label="Talons" lucidchartObjectId="IDDJ9zgb2tDh" id="15">
                    <mxCell style="html=1;overflow=block;blockSpacing=1;whiteSpace=wrap;fontSize=15;fontColor=#333333;spacing=3.8;strokeOpacity=0;fillOpacity=0;absoluteArcSize=1;arcSize=9;fillColor=#ffffff;strokeWidth=2.3;" parent="13" vertex="1">
                        <mxGeometry y="65" width="270" height="27" as="geometry"/>
                    </mxCell>
                </UserObject>
                <UserObject label="Context Providers" lucidchartObjectId="LDDJ5MCi5vOJ" id="16">
                    <mxCell style="html=1;overflow=block;blockSpacing=1;whiteSpace=wrap;fontSize=15;fontColor=#333333;spacing=3.8;strokeOpacity=0;fillOpacity=0;absoluteArcSize=1;arcSize=9;fillColor=#ffffff;strokeWidth=2.3;" parent="13" vertex="1">
                        <mxGeometry y="97" width="270" height="27" as="geometry"/>
                    </mxCell>
                </UserObject>
                <UserObject label="Apollo GraphQL Utilities" lucidchartObjectId="VDDJaJASkvhJ" id="17">
                    <mxCell style="html=1;overflow=block;blockSpacing=1;whiteSpace=wrap;fontSize=15;fontColor=#333333;spacing=3.8;strokeOpacity=0;fillOpacity=0;absoluteArcSize=1;arcSize=9;fillColor=#ffffff;strokeWidth=2.3;" parent="13" vertex="1">
                        <mxGeometry y="129" width="270" height="27" as="geometry"/>
                    </mxCell>
                </UserObject>
                <UserObject label="Reusable React Hooks" lucidchartObjectId="ZDDJxFrXplmU" id="18">
                    <mxCell style="html=1;overflow=block;blockSpacing=1;whiteSpace=wrap;fontSize=15;fontColor=#333333;spacing=3.8;strokeOpacity=0;fillOpacity=0;absoluteArcSize=1;arcSize=9;fillColor=#ffffff;strokeWidth=2.3;" parent="13" vertex="1">
                        <mxGeometry y="161" width="270" height="27" as="geometry"/>
                    </mxCell>
                </UserObject>
                <mxCell id="19" value="Page Builder" style="html=1;overflow=block;blockSpacing=1;whiteSpace=wrap;fontSize=15;fontColor=#ef8d22;fontStyle=1;align=left;spacing=9;verticalAlign=top;strokeColor=#ef8d22;strokeOpacity=100;absoluteArcSize=1;arcSize=9;strokeWidth=2.3;container=1;collapsible=0;fillColor=#FFFFFF;" parent="1" vertex="1">
                    <mxGeometry x="725" y="399" width="270" height="105" as="geometry"/>
                </mxCell>
                <UserObject label="Parser" lucidchartObjectId="hICJ_p2f_VWX" id="20">
                    <mxCell style="html=1;overflow=block;blockSpacing=1;whiteSpace=wrap;fontSize=15;fontColor=#333333;spacing=3.8;strokeOpacity=0;fillOpacity=0;absoluteArcSize=1;arcSize=9;fillColor=#ffffff;strokeWidth=2.3;" parent="19" vertex="1">
                        <mxGeometry y="30" width="270" height="39" as="geometry"/>
                    </mxCell>
                </UserObject>
                <UserObject label="UI Components" lucidchartObjectId="tICJResJxHMC" id="21">
                    <mxCell style="html=1;overflow=block;blockSpacing=1;whiteSpace=wrap;fontSize=15;fontColor=#333333;spacing=3.8;strokeOpacity=0;fillOpacity=0;absoluteArcSize=1;arcSize=9;fillColor=#ffffff;strokeWidth=2.3;" parent="19" vertex="1">
                        <mxGeometry y="52" width="270" height="47" as="geometry"/>
                    </mxCell>
                </UserObject>
                <mxCell id="22" value="Page Builder" style="html=1;overflow=block;blockSpacing=1;whiteSpace=wrap;fontSize=15;fontColor=#ef8d22;fontStyle=1;align=left;spacing=9;verticalAlign=top;strokeColor=#ef8d22;strokeOpacity=100;absoluteArcSize=1;arcSize=9;strokeWidth=2.3;container=1;collapsible=0;fillColor=#FFFFFF;" parent="1" vertex="1">
                    <mxGeometry x="718" y="951" width="278" height="105" as="geometry"/>
                </mxCell>
                <UserObject label="&lt;div style=&quot;display: flex; justify-content: center; text-align: center; align-items: baseline; font-size: 0; line-height: 1.25;margin-top: -2px;&quot;&gt;&lt;span&gt;&lt;span style=&quot;font-size:15px;color:#333333;font-style: italic;&quot;&gt;magento2-page-builder&lt;/span&gt;&lt;span style=&quot;font-size:15px;color:#333333;&quot;&gt;&#10;metapackage&lt;/span&gt;&lt;/span&gt;&lt;/div&gt;" lucidchartObjectId="KLCJYOjXM2JK" id="23">
                    <mxCell style="html=1;overflow=block;blockSpacing=1;whiteSpace=wrap;fontSize=13;spacing=3.8;strokeOpacity=0;fillOpacity=0;absoluteArcSize=1;arcSize=9;fillColor=#ffffff;strokeWidth=2.3;" parent="22" vertex="1">
                        <mxGeometry y="30" width="277" height="47" as="geometry"/>
                    </mxCell>
                </UserObject>
                <mxCell id="24" value="Environment Setup" style="html=1;overflow=block;blockSpacing=1;whiteSpace=wrap;fontSize=13;fontColor=#333333;fontStyle=1;align=left;spacing=9;verticalAlign=top;strokeColor=#333333;strokeOpacity=100;absoluteArcSize=1;arcSize=9;strokeWidth=2.3;container=1;collapsible=0;fillColor=#FFFFFF;" parent="1" vertex="1">
                    <mxGeometry x="122" y="323" width="240" height="90" as="geometry"/>
                </mxCell>
                <UserObject label="CLI tool" lucidchartObjectId="H5CJbPk5gqP5" id="25">
                    <mxCell style="html=1;overflow=block;blockSpacing=1;whiteSpace=wrap;fontSize=13;fontColor=#333333;spacing=3.8;strokeOpacity=0;fillOpacity=0;absoluteArcSize=1;arcSize=9;fillColor=#ffffff;strokeWidth=2.3;" parent="24" vertex="1">
                        <mxGeometry y="32" width="227" height="27" as="geometry"/>
                    </mxCell>
                </UserObject>
                <UserObject label="Configuration Management" lucidchartObjectId="25CJZQFU0cTm" id="26">
                    <mxCell style="html=1;overflow=block;blockSpacing=1;whiteSpace=wrap;fontSize=13;fontColor=#333333;spacing=3.8;strokeOpacity=0;fillOpacity=0;absoluteArcSize=1;arcSize=9;fillColor=#ffffff;strokeWidth=2.3;" parent="24" vertex="1">
                        <mxGeometry y="53" width="227" height="27" as="geometry"/>
                    </mxCell>
                </UserObject>
                <mxCell id="27" value="Build Process API" style="html=1;overflow=block;blockSpacing=1;whiteSpace=wrap;fontSize=13;fontColor=#333333;fontStyle=1;align=left;spacing=9;verticalAlign=top;strokeColor=#333333;strokeOpacity=100;absoluteArcSize=1;arcSize=9;strokeWidth=2.3;container=1;collapsible=0;fillColor=#FFFFFF;" parent="1" vertex="1">
                    <mxGeometry x="122" y="429" width="240" height="109" as="geometry"/>
                </mxCell>
                <UserObject label="Webpack Tools" lucidchartObjectId="o6CJUaPQaONZ" id="28">
                    <mxCell style="html=1;overflow=block;blockSpacing=1;whiteSpace=wrap;fontSize=13;fontColor=#333333;spacing=3.8;strokeOpacity=0;fillOpacity=0;absoluteArcSize=1;arcSize=9;fillColor=#ffffff;strokeWidth=2.3;" parent="27" vertex="1">
                        <mxGeometry y="32" width="227" height="27" as="geometry"/>
                    </mxCell>
                </UserObject>
                <UserObject label="BuildBus" lucidchartObjectId="o6CJCz6riIAx" id="29">
                    <mxCell style="html=1;overflow=block;blockSpacing=1;whiteSpace=wrap;fontSize=13;fontColor=#333333;spacing=3.8;strokeOpacity=0;fillOpacity=0;absoluteArcSize=1;arcSize=9;fillColor=#ffffff;strokeWidth=2.3;" parent="27" vertex="1">
                        <mxGeometry x="3" y="54" width="227" height="27" as="geometry"/>
                    </mxCell>
                </UserObject>
                <UserObject label="Transform Requests" lucidchartObjectId="v9CJ3aVz_XrK" id="30">
                    <mxCell style="html=1;overflow=block;blockSpacing=1;whiteSpace=wrap;fontSize=13;fontColor=#333333;spacing=3.8;strokeOpacity=0;fillOpacity=0;absoluteArcSize=1;arcSize=9;fillColor=#ffffff;strokeWidth=2.3;" parent="27" vertex="1">
                        <mxGeometry y="79" width="227" height="27" as="geometry"/>
                    </mxCell>
                </UserObject>
                <mxCell id="31" value="Extensibility API" style="html=1;overflow=block;blockSpacing=1;whiteSpace=wrap;fontSize=13;fontColor=#333333;fontStyle=1;align=left;spacing=9;verticalAlign=top;strokeColor=#333333;strokeOpacity=100;absoluteArcSize=1;arcSize=9;strokeWidth=2.3;container=1;collapsible=0;fillColor=#FFFFFF;" parent="1" vertex="1">
                    <mxGeometry x="124" y="554" width="238" height="90" as="geometry"/>
                </mxCell>
                <UserObject label="Targets" lucidchartObjectId="A6CJv3l4E_Oy" id="32">
                    <mxCell style="html=1;overflow=block;blockSpacing=1;whiteSpace=wrap;fontSize=13;fontColor=#333333;spacing=3.8;strokeOpacity=0;fillOpacity=0;absoluteArcSize=1;arcSize=9;fillColor=#ffffff;strokeWidth=2.3;" parent="31" vertex="1">
                        <mxGeometry y="32" width="225" height="27" as="geometry"/>
                    </mxCell>
                </UserObject>
                <UserObject label="Targetables" lucidchartObjectId="A6CJN-q2nFyJ" id="33">
                    <mxCell style="html=1;overflow=block;blockSpacing=1;whiteSpace=wrap;fontSize=13;fontColor=#333333;spacing=3.8;strokeOpacity=0;fillOpacity=0;absoluteArcSize=1;arcSize=9;fillColor=#ffffff;strokeWidth=2.3;" parent="31" vertex="1">
                        <mxGeometry y="52" width="225" height="27" as="geometry"/>
                    </mxCell>
                </UserObject>
                <mxCell id="34" value="PWA Studio" style="html=1;overflow=block;blockSpacing=1;whiteSpace=wrap;fontSize=15;fontColor=#834187;fontStyle=1;align=left;spacing=9;verticalAlign=top;strokeColor=#834187;strokeOpacity=100;absoluteArcSize=1;arcSize=9;strokeWidth=2.3;container=1;collapsible=0;fillColor=#FFFFFF;" parent="1" vertex="1">
                    <mxGeometry x="718" y="831" width="278" height="105" as="geometry"/>
                </mxCell>
                <UserObject label="&lt;div style=&quot;display: flex; justify-content: center; text-align: center; align-items: baseline; font-size: 0; line-height: 1.25;margin-top: -2px;&quot;&gt;&lt;span&gt;&lt;span style=&quot;font-size:15px;color:#333333;font-style: italic;&quot;&gt;magento2-pwa&lt;/span&gt;&lt;span style=&quot;font-size:15px;color:#333333;&quot;&gt;&#10;metapackage&lt;/span&gt;&lt;/span&gt;&lt;/div&gt;" lucidchartObjectId="PeDJqutuuNdI" id="35">
                    <mxCell style="html=1;overflow=block;blockSpacing=1;whiteSpace=wrap;fontSize=13;spacing=3.8;strokeOpacity=0;fillOpacity=0;absoluteArcSize=1;arcSize=9;fillColor=#ffffff;strokeWidth=2.3;" parent="34" vertex="1">
                        <mxGeometry y="28" width="277" height="52" as="geometry"/>
                    </mxCell>
                </UserObject>
                <mxCell id="36" value="Theming" style="html=1;overflow=block;blockSpacing=1;whiteSpace=wrap;fontSize=15;fontColor=#333333;spacing=9;verticalAlign=middle;strokeColor=#834187;strokeOpacity=100;absoluteArcSize=1;arcSize=9;strokeWidth=2.3;container=1;collapsible=0;fillColor=#FFFFFF;" parent="1" vertex="1">
                    <mxGeometry x="725" y="527" width="270" height="40" as="geometry"/>
                </mxCell>
                <mxCell id="37" value="Service Worker" style="html=1;overflow=block;blockSpacing=1;whiteSpace=wrap;fontSize=15;fontColor=#333333;spacing=9;verticalAlign=middle;strokeColor=#834187;strokeOpacity=100;absoluteArcSize=1;arcSize=9;strokeWidth=2.3;container=1;collapsible=0;fillColor=#FFFFFF;" parent="1" vertex="1">
                    <mxGeometry x="725" y="591" width="270" height="40" as="geometry"/>
                </mxCell>
                <mxCell id="38" value="Venia" style="html=1;overflow=block;blockSpacing=1;whiteSpace=wrap;fontSize=15;fontColor=#0c7cba;fontStyle=1;align=left;spacing=9;verticalAlign=top;strokeColor=#0c7cba;strokeOpacity=100;absoluteArcSize=1;arcSize=9;strokeWidth=2.3;container=1;collapsible=0;fillColor=#FFFFFF;" parent="1" vertex="1">
                    <mxGeometry x="718" y="1071" width="278" height="105" as="geometry"/>
                </mxCell>
                <UserObject label="Sample Data packages" lucidchartObjectId="JKDJd2W5WInH" id="39">
                    <mxCell style="html=1;overflow=block;blockSpacing=1;whiteSpace=wrap;fontSize=15;fontColor=#333333;spacing=3.8;strokeOpacity=0;fillOpacity=0;absoluteArcSize=1;arcSize=9;fillColor=#ffffff;strokeWidth=2.3;" parent="38" vertex="1">
                        <mxGeometry y="30" width="277" height="47" as="geometry"/>
                    </mxCell>
                </UserObject>
                <mxCell id="40" value="Text" style="text;html=1;resizable=0;autosize=1;align=center;verticalAlign=middle;points=[];fillColor=none;strokeColor=none;labelBackgroundColor=#FFFFFF;" parent="1" vertex="1">
                    <mxGeometry x="830" y="320" width="40" height="20" as="geometry"/>
                </mxCell>
                <mxCell id="48" value="&lt;h2&gt;&lt;font color=&quot;#333333&quot;&gt;PWA Studio Frontend Architecture&lt;/font&gt;&lt;/h2&gt;" style="text;html=1;align=center;verticalAlign=middle;whiteSpace=wrap;labelBackgroundColor=none;" parent="1" vertex="1">
                    <mxGeometry x="70" y="60" width="310" height="30" as="geometry"/>
                </mxCell>
                <mxCell id="50" value="Text" style="text;html=1;align=center;verticalAlign=middle;resizable=0;points=[];autosize=1;strokeColor=none;fillColor=none;" parent="1" vertex="1">
                    <mxGeometry x="180" y="20" width="40" height="20" as="geometry"/>
                </mxCell>
                <mxCell id="54" value="Double-click the canvas to add new text block" style="text;html=1;align=center;verticalAlign=middle;resizable=0;points=[];autosize=1;strokeColor=none;fillColor=none;fontColor=none;" parent="1" vertex="1">
                    <mxGeometry x="490" y="60" width="260" height="20" as="geometry"/>
                </mxCell>
                <mxCell id="55" value="Text" style="text;html=1;strokeColor=none;fillColor=none;align=center;verticalAlign=middle;whiteSpace=wrap;rounded=0;" parent="1" vertex="1">
                    <mxGeometry x="360" y="766" width="40" height="20" as="geometry"/>
                </mxCell>
            </root>
        </mxGraphModel>
    </diagram>
</mxfile>